# xmcd CD database file
#
# Track frame offsets:
#	150
#	17235
#	40465
#	63113
#	75845
#	92070
#	109868
#	129889
#	156945
#	175758
#	197225
#	219113
#	248510
#	278260
#
# Disc length: 4058 seconds
#
# Revision: 1
# Processed by: cddbd v1.4PL0 Copyright (c) Steve Scherf et al.
# Submitted via: CDex 1.51
#
DISCID=a60fd80e
DTITLE=Robert Cray - Greatest hits and more CD2
DYEAR=2001
DGENRE=Blues
TTITLE0=Don't be afraid of the dark
TTITLE1=Our last time
TTITLE2=1040 bleus
TTITLE3=Well i lied
TTITLE4=You're gonna need me
TTITLE5=I'm just lucky that way
TTITLE6=Just a loser
TTITLE7=Back home
TTITLE8=I'll go on
TTITLE9=Never mathered much
TTITLE10=Tell the landlord
TTITLE11=Holdin' on
TTITLE12=Up and down
TTITLE13=Nothin' against you
EXTD=YEAR: 2001
EXTT0=
EXTT1=
EXTT2=
EXTT3=
EXTT4=
EXTT5=
EXTT6=
EXTT7=
EXTT8=
EXTT9=
EXTT10=
EXTT11=
EXTT12=
EXTT13=
PLAYORDER=
